<svg id="Ebene_1" data-name="Ebene 1" xmlns="http://www.w3.org/2000/svg" viewBox="0 0 566.93 187.74">
  <title>logo</title>
  <g>
    <path id="dpa" d="M126.55,55.52H102V187.74h24.58V125h0.27l0.54,0.77,1.08,1,0.54,0.52,1.08,1,0.81,0.26,0.54,0.52,1.35,0.77,1.35,0.77,1.62,0.77,1.35,0.77,3.24,1,1.62,0.26,1.62,0.52,3.24,0.52h5.67l4.32-.52,2.16-.26,2.16-.52,1.89-.77,1.89-.52,1.89-.77,1.89-.77,3.24-2.07,1.62-1.29,1.35-1,1.62-1.29,1.35-1.29,1.35-1.29,1.08-1.55,1.08-1.55,1.08-1.55,1.08-1.55,1.08-1.81,0.81-1.55,0.81-1.81,0.54-1.81,0.54-1.55,0.54-1.81,0.54-2.07,0.54-3.61,0.27-1.81,0.27-2.07V92.19l-0.27-1.81V88.32l-0.54-1.81L188.4,84.7l-0.54-2.07-0.54-1.81L186.78,79l-0.54-1.81-0.81-1.81-0.81-1.55L183.54,72l-1.08-1.55L181.65,69,180.3,67.4l-1.08-1.55-1.35-1.29L176.52,63l-1.62-1-1.35-1.29-1.62-1.29-1.62-1-1.89-.77-1.62-1-1.89-.77L163,55l-2.16-.52L159,54l-2.16-.26-2.43-.26-2.16-.26h-5.67l-1.62.26-1.62.26-1.62.26-4.86,1.55-1.35.77-1.35.77-0.81.26-0.81.52L132,58.1l-0.54.52-0.81.52-0.54.52-0.54.26-0.54.52-0.54.52-0.54.77-0.54.52-0.54.52h-0.27V55.52Zm17.82,16.79,1.08,0.26h1.08l1.08,0.26h1.08l1.08,0.26,1.08,0.52,1.08,0.26,0.81,0.52,1.08,0.52,0.81,0.52,0.81,0.52,0.81,0.52,0.81,0.77,0.81,0.52,0.54,0.77,0.81,0.77,0.54,0.77,0.54,0.77,0.81,0.77,0.27,1,0.54,0.77,0.54,1,0.27,0.77,0.54,1L163.55,87l0.27,1,0.27,1,0.27,1V90.9l0.27,1v3.87l-0.27,1v1l-0.27.77-0.27,1-0.27,1-0.27.77-0.54,1-0.27,1-0.54.77-0.54.77-0.27,1-0.81.77-1.08,1.55-0.81.77-0.54.77-0.81.52-0.81.77-0.81.52-1.62,1-1.08.52-0.81.52-1.08.26-2.16.52-1.08.26-1.08.26h-4.59l-1.08-.26-1.08-.26-1.08-.26-0.81-.26-1.08-.26-1.08-.52-0.81-.52-0.81-.52-1.08-.52-0.81-.52-0.81-.77-0.54-.52-0.81-.77-0.54-.77-0.81-.77-0.54-.77-0.54-.77-0.54-1-0.54-.77-0.27-.77-0.54-1-0.27-1-0.27-.77-0.27-1-0.27-1-0.27-.77-0.27-1V90.9l0.27-.77,0.54-2.07,0.27-1,0.27-.77,0.27-1,0.54-.77,0.27-1,0.54-.77,0.54-1,0.54-.77,0.54-.77,0.81-.77,0.54-.77,0.81-.77,0.54-.52,0.81-.77,0.81-.52,1.08-.52,0.81-.52,0.81-.52,1.08-.52,1.08-.26,0.81-.52,1.08-.26h1.08l1.08-.26H143l1.35-.26M285.61,55.52H261.31v7.23l-1.62-1.55-0.81-.52-1.08-1-1.35-1-1.35-.77-1.62-.77-1.35-.77-1.62-.77-3.24-1-1.62-.26L244,53.71l-1.62-.26h-1.62l-1.62-.26h-4.05l-2.16.26-2.16.26-2.16.26-1.89.52-2.16.77-1.89.52-1.89.77-1.62,1-1.89.77-1.62,1L214,60.69l-1.35,1L211.34,63l-1.62,1.29-1.08,1.55-1.35,1.29-1.08,1.55-1.08,1.55-1.08,1.55-0.81,1.81-0.81,1.55L201.62,77l-0.81,1.81-0.54,1.55-0.54,2.07-0.54,1.81L198.92,86l-0.27,1.81-0.27,1.81-0.27,2.07v3.87l0.27,1.81,0.27,2.07,0.27,1.81,0.27,1.81,0.54,2.07,0.54,1.81,0.54,1.81,0.81,1.81,0.81,1.81,0.81,1.55,0.81,1.81,1.08,1.55,1.08,1.55,1.08,1.55,1.35,1.55,1.08,1.29,1.35,1.55,1.62,1.29,1.35,1,1.62,1.29,1.62,1,1.89,0.77,1.89,1,1.62,0.77,2.16,0.77,1.89,0.52,2.16,0.52,2.16,0.52,2.16,0.26h7.83l4.86-.77,4.86-1.55,1.35-.77,1.62-.52,1.35-.77,1.35-1,0.54-.26,0.81-.52,0.54-.52,1.08-1,0.54-.52,1.08-1h0.27v7h24.31V55.52Zm-42.4,59.91h-1.08l-1.08-.26H240l-1.08-.26-1.08-.26-1.08-.52-0.81-.26-1.08-.52-0.81-.52-1.08-.52-0.81-.52-0.81-.52-0.81-.77L230,110l-0.81-.77-0.81-.77-0.54-.77-0.54-.77-0.54-.77-0.54-1-0.54-.77-0.54-1-0.27-.77-0.27-1-0.54-.77-0.54-2.07v-1l-0.27-.77v-1l-0.27-1V93l0.27-1v-1l0.27-1V89.09L224,87l0.54-.77,0.54-2.07,0.54-.78,0.54-.77,0.54-1,0.54-.77,0.54-.77,0.54-.77,0.81-.77,0.81-.77,0.54-.52,0.81-.77,0.81-.52,0.81-.52,1.08-.52,0.81-.52,1.08-.52,0.81-.26,1.08-.26,1.08-.26,1.08-.26,1.08-.26h4.59l1.08,0.26,1.08,0.26,1.08,0.26L250,73.6l0.81,0.26,2.16,1,0.81,0.52,0.81,0.52,0.81,0.52,0.81,0.77L257,77.73l0.54,0.77,0.81,0.77,0.54,0.77,0.81,0.77,0.54,0.77,0.54,1,0.54,0.77,0.27,0.78,0.54,1,0.27,1L262.66,87l0.27,1,0.27,1,0.27,0.77,0.27,1v5.94l-0.27.77-0.27,1-0.27,1-0.27,1-0.27.77-0.27,1-0.54.77-0.27,1-0.54.77-0.54,1-0.54.77-0.81.77-0.54.77-0.81.77L257,110l-0.81.52-0.81.77-0.81.52-1.62,1-2.16,1-0.81.26-1.08.52-1.08.26-1.08.26h-1.08l-1.08.26h-1.35M62.92,132.22H87.5V0H62.92V62.75H62.65L62.11,62l-0.54-.52L61,60.95l-1.08-1-0.81-.52-0.54-.26-0.54-.52-1.35-.77-1.62-.77-1.35-.77-1.62-.77L50.77,55l-1.62-.52-1.62-.26-1.62-.52-1.62-.26H42.67l-1.89-.26H37l-2.16.26-2.43.26L30.52,54l-2.16.52-1.89.77-1.89.52-1.89.77-1.89,1-1.62.77-1.62,1-1.62,1.29-1.35,1L13,63,11.61,64.3l-1.35,1.55L9.18,67.14,8.1,68.69,6.75,70.24,5.94,71.79,4.86,73.6,4.05,75.15,3.24,77,2.7,78.76,2.16,80.31,1.62,82.38,1.08,84.19,0.54,86,0.27,87.8v1.81L0,91.68v3.87l0.27,1.81v2.07l0.27,1.81L1.08,103l0.54,2.07,0.54,1.81,0.54,1.81,0.54,1.81,0.81,1.81,0.81,1.55,1.08,1.81,0.81,1.55,1.08,1.55,1.35,1.55,1.08,1.55,1.35,1.29L13,124.73,14.58,126l1.35,1,1.62,1.29,1.62,1,1.89,0.77,1.62,1L24.58,132l1.89,0.77,2.16,0.52,1.89,0.52,2.16,0.52,2.16,0.26h8.1l3.24-.52,1.62-.26,4.86-1.55,1.35-.77,1.35-.77,0.81-.26,0.81-.26,0.54-.52,0.54-.52,0.81-.52,0.54-.52,0.54-.26,1.08-1,0.54-.52,0.54-.77,0.54-.52h0.27v7.23ZM45.1,115.43H44l-1.08-.26H41.59l-0.81-.26-1.08-.26-1.08-.52-1.08-.26-0.81-.52-1.08-.52-0.81-.52L34,111.82l-0.81-.52-0.81-.77L31.6,110l-0.54-.77-0.81-.77-0.54-.77-0.54-.77-0.81-.77-0.27-1-0.54-.77-0.54-1-0.27-.77-0.54-1-0.27-.77-0.27-1-0.54-2.07V96.84l-0.27-1V91.93l0.27-1v-1l0.27-.77,0.27-1,0.27-1,0.27-.77,0.54-1,0.27-1,0.54-.78,0.54-.77,0.27-1,0.81-.77,0.54-.77,0.54-.77,0.81-.77,0.54-.77,0.81-.52,0.81-.77L34,75.92l0.81-.52,0.81-.52,1.08-.52,0.81-.52,1.08-.26,1.08-.26,1.08-.26,0.81-.26,1.35-.26h4.59l1.08,0.26,1.08,0.26,1.08,0.26,0.81,0.26,1.08,0.26,1.08,0.52,0.81,0.52,0.81,0.52,0.81,0.52L57,76.44l0.81,0.77,0.81,0.52,0.81,0.77L60,79.28l0.81,0.77,0.54,0.77,0.54,0.77,0.54,1,0.54,0.77,0.27,0.78,0.54,1,0.27,1L64.27,87l0.27,1,0.27,1,0.27,0.77,0.27,1v5.94l-0.27.77-0.27,1-0.27,1-0.27,1-0.27.77-0.27,1-0.54.77-0.27,1-0.54.77-0.54,1-0.54.77-0.54.77-0.81.77-0.54.77L58.6,110l-0.81.52L57,111.3l-0.81.52-0.81.52-0.81.52-0.81.52-1.08.52-1.08.26-0.81.52-1.08.26-1.08.26H47.53l-1.08.26H45.1" fill="#000100"/>
    <g id="dots">
      <path id="dot_l" data-name="dot l" d="M378.56,92.6a23.73,23.73,0,1,1-47.47,0v0a23.73,23.73,0,0,1,47.47,0v0Z" fill="#94c473"/>
      <path id="dot_m" data-name="dot m" d="M474.39,92.6a23.73,23.73,0,1,1-23.73-23.73A23.74,23.74,0,0,1,474.39,92.6Z" fill="#94c473"/>
      <path id="dot_r" data-name="dot r" d="M566.93,92.6a23.73,23.73,0,1,1-23.73-23.73A23.74,23.74,0,0,1,566.93,92.6Z" fill="#94c473"/>
    </g>
  </g>
</svg>
